<?xml version="1.0" standalone="no"?>
<!DOCTYPE svg PUBLIC "-//W3C//DTD SVG 20010904//EN"
 "http://www.w3.org/TR/2001/REC-SVG-20010904/DTD/svg10.dtd">
<svg version="1.0" xmlns="http://www.w3.org/2000/svg"
 width="260.000000pt" height="260.000000pt" viewBox="0 0 260.000000 260.000000"
 preserveAspectRatio="xMidYMid meet">
<metadata>
Created by potrace 1.14, written by Peter Selinger 2001-2017
</metadata>
<g transform="translate(0.000000,260.000000) scale(0.100000,-0.100000)"
fill="#000000" stroke="none">
<path d="M440 1300 l0 -1300 405 0 c377 0 404 1 398 17 -4 10 -19 43 -35 75
-15 32 -28 60 -28 63 0 13 -113 236 -134 264 -41 55 -102 231 -86 248 5 4 -2
30 -15 57 -13 27 -26 64 -28 82 -3 17 -7 37 -11 42 -11 19 -17 105 -10 159 l6
53 30 -45 c34 -51 69 -80 181 -151 43 -27 95 -60 115 -73 l37 -24 -20 23 c-17
20 -17 22 -3 17 13 -4 15 -2 11 11 -6 15 -3 14 15 -2 12 -11 22 -14 22 -8 0 6
7 9 16 5 10 -4 15 -1 14 8 -5 33 1 39 36 39 55 0 149 55 237 139 l77 74 0 -39
c0 -22 8 -73 17 -114 12 -55 17 -125 18 -260 0 -102 2 -292 3 -422 l2 -238
230 0 230 0 0 1300 0 1300 -865 0 -865 0 0 -1300z m997 897 c7 -4 43 -7 80 -5
38 1 74 -1 81 -6 6 -4 16 -5 21 -2 11 7 41 -30 88 -109 39 -67 56 -140 75
-328 6 -65 15 -120 20 -123 4 -3 8 3 8 13 0 11 6 25 13 32 10 11 10 13 0 7
-15 -8 -19 29 -4 38 24 15 28 -24 16 -154 -13 -140 -28 -200 -50 -200 -7 0
-15 -18 -18 -42 -14 -95 -37 -148 -98 -218 -33 -39 -64 -68 -70 -65 -5 4 -13
-4 -18 -17 -23 -59 -104 -95 -131 -57 -8 10 -18 15 -24 10 -6 -4 -21 -10 -32
-13 -28 -7 -74 34 -74 65 0 18 2 19 11 7 8 -11 10 -12 7 -1 -2 8 -19 15 -38
18 -19 2 -41 11 -48 21 -14 19 -8 57 13 78 8 8 13 20 11 27 -1 7 -1 9 1 5 3
-5 13 -8 24 -8 10 0 19 -5 19 -12 0 -6 3 -8 7 -5 3 4 12 2 19 -4 8 -6 14 -6
18 0 4 5 -4 17 -16 25 -22 16 -22 16 12 16 32 0 33 1 15 14 -19 14 -19 15 9
28 25 11 30 11 34 -1 3 -10 6 -10 12 -1 4 6 36 14 71 18 l64 6 -54 12 c-30 7
-58 11 -63 8 -11 -7 -88 15 -88 25 0 5 6 11 14 14 10 4 13 16 9 38 -4 29 -3
31 19 26 43 -11 57 15 26 47 -20 20 -23 39 -8 65 6 12 4 36 -5 72 -8 30 -15
73 -15 96 0 56 -8 73 -34 73 -12 0 -37 16 -56 35 -27 28 -42 35 -72 35 -33 0
-38 3 -38 23 0 12 7 35 15 51 8 15 13 32 10 36 -3 4 2 10 10 14 8 3 12 11 9
19 -3 8 2 20 11 27 8 7 15 29 16 49 1 44 21 162 31 176 8 12 117 14 135 2z
m-226 -479 c-23 -6 -37 -6 -44 1 -8 8 2 11 34 10 l44 -1 -34 -10z m44 -38 c3
-6 -1 -13 -10 -16 -19 -8 -30 0 -20 15 8 14 22 14 30 1z m65 -33 c0 -5 -10
-25 -21 -44 -14 -22 -18 -37 -12 -42 18 -10 20 -44 6 -73 -15 -30 -14 -76 1
-97 13 -16 -21 -44 -43 -36 -7 3 -25 -2 -38 -11 -14 -8 -26 -14 -27 -12 -1 2
-8 15 -15 30 -7 14 -22 29 -33 31 -17 5 -19 13 -16 59 3 51 2 53 -34 77 -41
26 -47 45 -23 71 12 13 27 15 92 9 43 -5 81 -5 85 0 5 4 -9 8 -29 9 -45 3 -52
9 -30 25 21 15 137 18 137 4z m-502 -22 c-3 -3 -9 2 -12 12 -6 14 -5 15 5 6 7
-7 10 -15 7 -18z m-71 -7 c-3 -8 -6 -5 -6 6 -1 11 2 17 5 13 3 -3 4 -12 1 -19z
m303 5 c0 -14 -19 -38 -25 -32 -8 8 5 39 16 39 5 0 9 -3 9 -7z m-244 -99 c1
-50 -1 -54 -13 -38 -14 19 -18 76 -6 87 14 15 18 5 19 -49z m34 1 c0 -8 -4
-15 -10 -15 -5 0 -7 7 -4 15 4 8 8 15 10 15 2 0 4 -7 4 -15z m314 -270 c3 -9
18 -15 38 -15 25 0 29 -3 20 -12 -7 -7 -12 -20 -12 -31 0 -10 -5 -17 -12 -15
-14 5 -58 65 -58 79 0 15 17 10 24 -6z m-275 -252 c0 -29 -2 -33 -8 -18 -7 18
-4 55 5 55 2 0 4 -17 3 -37z m-24 -88 c1 -25 0 -43 -3 -40 -3 3 -7 26 -9 52
-1 25 1 43 4 39 4 -3 7 -26 8 -51z m45 -90 c0 -8 -2 -15 -4 -15 -2 0 -6 7 -10
15 -3 8 -1 15 4 15 6 0 10 -7 10 -15z"/>
<path d="M1558 1760 c-10 -6 -18 -15 -18 -21 0 -5 -12 -21 -27 -34 -16 -13
-22 -25 -15 -25 7 0 10 -5 6 -12 -5 -8 0 -9 14 -6 12 4 20 3 17 -1 -2 -4 14
-8 36 -9 26 -1 42 3 45 12 5 12 9 12 32 0 15 -8 33 -14 41 -14 25 0 -8 28 -47
41 -63 20 -58 28 17 23 54 -3 71 -1 71 9 0 26 -140 56 -172 37z"/>
<path d="M1460 1410 c0 -5 14 -10 31 -10 17 0 28 4 24 10 -3 6 -17 10 -31 10
-13 0 -24 -4 -24 -10z"/>
<path d="M1423 1348 c-10 -14 -15 -58 -7 -58 16 0 44 39 38 53 -7 20 -18 22
-31 5z"/>
<path d="M1578 1263 c7 -3 16 -2 19 1 4 3 -2 6 -13 5 -11 0 -14 -3 -6 -6z"/>
<path d="M1438 1193 c7 -3 16 -2 19 1 4 3 -2 6 -13 5 -11 0 -14 -3 -6 -6z"/>
<path d="M1395 1140 c4 -6 11 -8 16 -5 14 9 11 15 -7 15 -8 0 -12 -5 -9 -10z"/>
<path d="M1630 1135 c0 -8 2 -15 4 -15 2 0 6 7 10 15 3 8 1 15 -4 15 -6 0 -10
-7 -10 -15z"/>
<path d="M1666 1141 c-4 -5 3 -7 14 -4 23 6 26 13 6 13 -8 0 -17 -4 -20 -9z"/>
<path d="M1572 803 c-35 -35 -86 -78 -113 -95 -28 -17 -48 -33 -45 -36 15 -14
191 133 218 183 13 22 10 19 -60 -52z"/>
<path d="M1423 643 c-14 -5 -18 -63 -5 -63 4 0 16 -14 27 -30 11 -16 26 -30
33 -30 8 0 10 -8 6 -27 -9 -39 -14 -41 -14 -8 l0 28 -26 -24 -27 -24 18 28
c16 25 16 28 0 53 -12 18 -23 24 -37 21 -16 -5 -18 -3 -9 6 15 15 14 33 -3 49
-17 18 -86 12 -86 -8 0 -8 6 -11 15 -8 8 4 15 1 15 -5 0 -6 -7 -11 -15 -11
-17 0 -39 -36 -30 -50 3 -6 18 -10 33 -10 37 0 60 -15 37 -23 -9 -4 -13 -3
-10 3 3 6 -5 10 -19 10 -14 0 -26 -2 -26 -5 0 -2 20 -27 45 -55 43 -49 56 -85
36 -105 -16 -17 -28 -101 -30 -199 -2 -103 10 -150 20 -81 l6 40 2 -37 c0 -20
-3 -40 -9 -43 -23 -14 -9 -35 24 -35 49 0 99 23 84 38 -9 9 -9 12 -1 12 7 0
15 -5 18 -10 8 -13 75 -13 75 0 0 5 7 7 16 3 26 -10 45 23 32 53 -15 33 -62
36 -85 7 -7 -9 -14 -15 -15 -12 -2 2 -19 22 -38 44 -27 30 -29 35 -10 22 41
-28 52 -31 81 -20 19 8 31 7 38 0 18 -18 13 3 -10 39 -21 35 -33 41 -44 24 -4
-6 -10 -8 -15 -5 -5 3 -21 0 -36 -5 -15 -6 -29 -8 -32 -5 -3 3 9 10 26 16 33
11 40 23 22 34 -5 3 -10 11 -10 17 0 7 5 7 14 -1 10 -9 15 -8 18 1 9 23 -3 38
-30 39 -25 2 -26 2 -3 6 20 4 22 9 17 35 -3 17 -6 37 -6 44 0 8 -4 14 -10 14
-5 0 -10 -8 -10 -17 0 -14 -2 -15 -12 -4 -11 10 -10 15 5 25 27 21 21 46 -10
47 -21 1 -23 2 -8 6 29 7 52 31 64 64 6 16 7 28 3 25 -4 -2 -12 11 -18 30 -6
19 -7 34 -3 34 5 0 11 -11 15 -25 3 -14 13 -25 22 -25 8 0 30 -17 49 -37 l35
-38 -32 47 c-42 61 -139 131 -167 121z m52 -33 c-3 -5 -11 -10 -16 -10 -6 0
-7 5 -4 10 3 6 11 10 16 10 6 0 7 -4 4 -10z m-145 -50 c6 -11 8 -20 6 -20 -3
0 -10 9 -16 20 -6 11 -8 20 -6 20 3 0 10 -9 16 -20z m85 -200 c-9 -16 -20 -30
-25 -30 -15 0 -12 5 13 34 29 33 31 33 12 -4z m-5 -94 c0 -2 -7 -7 -16 -10 -8
-3 -12 -2 -9 4 6 10 25 14 25 6z m43 -168 c5 6 18 12 30 12 16 0 9 -6 -22 -20
-51 -23 -68 -26 -54 -7 6 6 13 27 17 46 6 32 5 33 -19 28 -29 -5 -26 0 7 17
22 11 23 10 28 -39 3 -30 8 -45 13 -37z"/>
<path d="M1256 597 c-17 -12 -17 -14 -1 -27 14 -12 18 -12 26 1 18 29 2 46
-25 26z"/>
<path d="M1601 26 c-20 -11 -21 -14 -6 -19 42 -17 71 -2 42 21 -8 7 -19 7 -36
-2z"/>
<path d="M1488 8 c-8 -4 6 -8 35 -8 26 0 47 3 47 8 0 10 -66 10 -82 0z"/>
</g>
</svg>
